HIERARCHY
ROOT hip
{
	OFFSET 0.000000 0.000000 0.000000 
	CHANNELS 6 Xposition Yposition Zposition Zrotation Xrotation Yrotation
	JOINT abdomen
	{
		OFFSET 0.000000 3.402643 0.000000 
		CHANNELS 3 Zrotation Xrotation Yrotation
		JOINT chest
		{
			OFFSET 0.000000 8.438565 -0.680529 
			CHANNELS 3 Zrotation Xrotation Yrotation
			JOINT neck
			{
				OFFSET 0.000000 10.207942 -0.272212 
				CHANNELS 3 Zrotation Xrotation Yrotation
				JOINT head
				{
					OFFSET 0.000000 3.130431 0.000000 
					CHANNELS 3 Zrotation Xrotation Yrotation
					End Site
					{
						OFFSET 0.000000 3.130435 0.000000 
					}
				}
			}
			JOINT lCollar
			{
				OFFSET 3.470700 6.669187 -0.816635 
				CHANNELS 3 Zrotation Xrotation Yrotation
				JOINT lShldr
				{
					OFFSET 3.198488 0.000000 0.000000 
					CHANNELS 3 Zrotation Xrotation Yrotation
					JOINT lForeArm
					{
						OFFSET 10.139888 0.000000 0.000000 
						CHANNELS 3 Zrotation Xrotation Yrotation
						JOINT lHand
						{
							OFFSET 8.370511 0.000000 0.000000 
							CHANNELS 3 Zrotation Xrotation Yrotation
							End Site
							{
								OFFSET 4.083176 0.000000 0.000000 
							}
						}
					}
				}
			}
			JOINT rCollar
			{
				OFFSET -3.470700 6.669187 -0.816635 
				CHANNELS 3 Zrotation Xrotation Yrotation
				JOINT rShldr
				{
					OFFSET -3.198488 0.000000 0.000000 
					CHANNELS 3 Zrotation Xrotation Yrotation
					JOINT rForeArm
					{
						OFFSET -10.139888 0.000000 0.000000 
						CHANNELS 3 Zrotation Xrotation Yrotation
						JOINT rHand
						{
							OFFSET -8.370511 0.000000 0.000000 
							CHANNELS 3 Zrotation Xrotation Yrotation
							End Site
							{
								OFFSET -4.083176 0.000000 0.000000 
							}
						}
					}
				}
			}
		}
	}
	JOINT lThigh
	{
		OFFSET 5.308129 -1.633274 1.361059 
		CHANNELS 3 Zrotation Xrotation Yrotation
		JOINT lShin
		{
			OFFSET -2.041588 -20.007561 0.000000 
			CHANNELS 3 Zrotation Xrotation Yrotation
			JOINT lFoot
			{
				OFFSET 0.000000 -19.190928 -1.224953 
				CHANNELS 3 Zrotation Xrotation Yrotation
				End Site
				{
					OFFSET 0.000000 -2.449906 4.627600 
				}
			}
		}
	}
	JOINT rThigh
	{
		OFFSET -5.308129 -1.633274 1.361059 
		CHANNELS 3 Zrotation Xrotation Yrotation
		JOINT rShin
		{
			OFFSET 2.041588 -20.007561 0.000000 
			CHANNELS 3 Zrotation Xrotation Yrotation
			JOINT rFoot
			{
				OFFSET 0.000000 -19.190928 -1.224953 
				CHANNELS 3 Zrotation Xrotation Yrotation
				End Site
				{
					OFFSET 0.000000 -2.449906 4.627600 
				}
			}
		}
	}
}
MOTION
Frames: 6
Frame Time: 0.016667
-0.600710 43.276505 0.114030 -2.509770 3.095700 -2.529600 -1.773050 15.176200 0.215007 -0.451479 -21.190001 -0.701769 -8.921930 2.031400 4.752070 0.427614 5.968060 2.363670 -1.998780 -0.069785 1.998780 -85.446297 14.030200 2.856810 1.169360 -1.390260 -34.751099 -0.051508 38.268002 0.010301 1.998780 -0.069785 -1.998780 84.416702 10.624000 2.244930 0.768636 0.203697 32.872002 -0.048208 67.314003 0.126024 2.294060 -14.601000 0.404327 2.692800 29.070200 1.030810 -2.248910 -10.648500 -8.628950 4.979840 -12.116600 1.853970 -2.530620 25.131399 -1.043680 -0.603937 -14.380300 -2.801560 
-0.618210 43.248405 0.028530 -2.363280 3.398430 -3.193640 -1.692880 15.216100 0.284372 -0.511989 -20.985500 -0.512496 -8.949350 1.200950 5.107010 0.329938 5.694470 2.585320 -1.998780 -0.069785 1.998780 -85.149803 14.007400 3.087990 1.186460 -1.406390 -35.639099 -0.052150 37.974998 0.011297 1.998780 -0.069785 -1.998780 84.670998 11.792800 2.640340 0.807904 0.224025 34.130798 -0.052995 67.753998 0.131347 2.333629 -15.345700 0.837138 2.722100 29.746401 1.036370 -2.274090 -10.549200 -8.939040 5.070030 -13.282500 3.100700 -2.582850 26.730301 -1.055830 -0.516504 -14.535600 -2.737740 
-0.652811 43.180004 -0.111079 -2.265620 3.691410 -3.779570 -1.792090 15.078400 0.407364 -0.631275 -20.780899 -0.323807 -8.965610 0.586894 5.630620 0.241944 5.528300 2.874670 -1.998780 -0.069785 1.998780 -85.059402 13.361400 3.810780 1.214990 -1.434470 -37.151501 -0.052319 37.896999 0.011560 1.998780 -0.069785 -1.998780 84.996696 13.126600 3.001770 0.850600 0.247391 35.516499 -0.058658 68.251900 0.137616 2.432239 -16.110100 1.099290 2.710330 30.367500 1.067100 -2.273440 -10.335500 -9.191470 5.275750 -14.575600 4.436650 -2.612320 28.754999 -1.112640 -0.505518 -15.746800 -2.743250 
-0.727269 43.090603 -0.305548 -1.640630 3.720700 -4.052970 -1.853070 15.126500 0.467867 -1.032550 -20.283001 -0.270736 -8.776240 -0.131285 6.285110 0.222610 5.372020 3.237350 -1.998780 -0.069785 1.998780 -84.869797 12.763400 4.581260 1.251050 -1.472170 -39.122501 -0.053242 37.466999 0.013004 1.998780 -0.069785 -1.998780 85.385902 14.632300 3.471990 0.898310 0.275125 37.087601 -0.060843 68.437897 0.140026 1.992179 -16.621700 1.162990 2.675550 30.852699 1.103590 -2.292290 -9.981410 -9.554060 4.981410 -16.025299 5.852690 -2.629370 31.319000 -1.144710 -0.526330 -16.192699 -2.805770 
-0.840533 43.009403 -0.570457 -1.113280 3.486320 -3.750170 -2.092920 14.986900 0.533018 -1.478890 -19.628700 -0.290409 -8.840610 -1.522770 6.536280 0.115610 4.922600 3.401050 -1.998780 -0.069785 1.998780 -84.837700 11.640500 5.237280 1.286970 -1.512470 -41.161900 -0.055505 36.373001 0.016599 1.998780 -0.069785 -1.998780 85.481300 16.423700 3.691530 0.955340 0.310637 39.000198 -0.058891 68.271896 0.137872 1.665999 -17.078400 0.848317 2.672140 31.669500 1.137990 -2.352920 -9.024970 -10.823100 4.795250 -17.288900 7.630570 -2.671680 34.175598 -1.195000 0.145653 -16.037100 -0.930081 
-1.018410 42.850204 -0.891751 -0.478516 3.105470 -2.968830 -2.280250 14.720800 0.589623 -1.905580 -18.857100 -0.309745 -8.350420 -2.516690 6.662630 0.351272 4.649570 3.472470 -1.998780 -0.069785 1.998780 -84.925003 9.822040 5.727230 1.310050 -1.539960 -42.518200 -0.059353 34.370998 0.022923 1.998780 -0.069785 -1.998780 85.166000 17.799200 3.643890 1.010310 0.347446 40.883499 -0.093916 69.081902 0.176025 1.394219 -17.636499 0.768396 2.653250 32.869598 1.161560 -2.471600 -7.536060 -13.123000 4.571230 -18.247499 9.542400 -2.675430 36.611000 -1.233880 0.864616 -15.572000 1.256450 
